#Comment line ignore any data following # character 
#Hierarchical Translation and Rotation (.htr) file 
[Header]	
#Header keywords are followed by a single value 
FileType HTR		#Single word string
DataType HTRS		#Translation followed by rotation and scale data
FileVersion 1		#integer
NumSegments 84		#integer
NumFrames 2		#integer
DataFrameRate 30		#integer, data frame rate in this file
EulerRotationOrder ZYX
CalibrationUnits mm
RotationUnits Degrees
GlobalAxisofGravity Y
BoneLengthAxis Y
ScaleFactor 1.00
[SegmentNames&Hierarchy]
#CHILD	PARENT
MASTER GLOBAL
root MASTER
chest root
L_mid_tent01 root
R_mid_tent01 root
spine01 root
Bip01_Neck chest
L_humerus chest
R_humerus chest
weapon_bone chest
Bip01_Head Bip01_Neck
eye_left_bone Bip01_Head
eye_right_bone Bip01_Head
L_forearm L_humerus
L_front_hand L_forearm
L_weapon_bone L_forearm
L_front_hand01_01 L_front_hand
L_front_hand02_01 L_front_hand
L_front_hand03_01 L_front_hand
L_front_hand01_02 L_front_hand01_01
L_front_hand02_02 L_front_hand02_01
L_front_hand03_02 L_front_hand03_01
R_forearm R_humerus
R_front_hand R_forearm
R_weapon_bone R_forearm
R_front_hand01_01 R_front_hand
R_front_hand02_01 R_front_hand
R_front_hand03_01 R_front_hand
R_front_hand01_02 R_front_hand01_01
R_front_hand02_02 R_front_hand02_01
R_front_hand03_02 R_front_hand03_01
null_rope01_connect L_mid_tent01
Rope1_Seg01 null_rope01_connect
Rope1_Seg02 Rope1_Seg01
Rope1_Seg03 Rope1_Seg02
Rope1_Seg04 Rope1_Seg03
Rope1_Seg05 Rope1_Seg04
Rope1_Seg06 Rope1_Seg05
Rope1_Seg07 Rope1_Seg06
Rope1_Seg09 Rope1_Seg07
L_mid_hand01 Rope1_Seg09
L_mid_hand02 Rope1_Seg09
L_mid_hand03 Rope1_Seg09
null_rope02_connect R_mid_tent01
Rope2_Seg01 null_rope02_connect
Rope2_Seg02 Rope2_Seg01
Rope2_Seg03 Rope2_Seg02
Rope2_Seg04 Rope2_Seg03
Rope2_Seg05 Rope2_Seg04
Rope2_Seg06 Rope2_Seg05
Rope2_Seg07 Rope2_Seg06
Rope2_Seg09 Rope2_Seg07
R_mid_hand01 Rope2_Seg09
R_mid_hand02 Rope2_Seg09
R_mid_hand03 Rope2_Seg09
spine02 spine01
spine03 spine02
pelvis spine03
null_rope03_connect pelvis
null_rope04_connect pelvis
Rope3_Seg01 null_rope03_connect
Rope3_Seg02 Rope3_Seg01
Rope3_Seg03 Rope3_Seg02
Rope3_Seg04 Rope3_Seg03
Rope3_Seg05 Rope3_Seg04
Rope3_Seg06 Rope3_Seg05
Rope3_Seg07 Rope3_Seg06
Rope3_Seg08 Rope3_Seg07
Rope3_Seg09 Rope3_Seg08
R_rear_hand01 Rope3_Seg09
R_rear_hand02 Rope3_Seg09
R_rear_hand03 Rope3_Seg09
Rope4_Seg01 null_rope04_connect
Rope4_Seg02 Rope4_Seg01
Rope4_Seg03 Rope4_Seg02
Rope4_Seg04 Rope4_Seg03
Rope4_Seg05 Rope4_Seg04
Rope4_Seg06 Rope4_Seg05
Rope4_Seg07 Rope4_Seg06
Rope4_Seg08 Rope4_Seg07
Rope4_Seg09 Rope4_Seg08
L_rear_hand01 Rope4_Seg09
L_rear_hand02 Rope4_Seg09
L_rear_hand03 Rope4_Seg09
[BasePosition]
#SegmentName Tx, Ty, Tz, Rx, Ry, Rz, BoneLength
MASTER 0.000000 0.000000 0.000000 -90.000000 0.000000 0.000000 10.000000 
root 0.000000 0.000000 0.000000 0.000000 0.000000 0.000000 10.000000 
chest 0.000000 0.000000 0.000000 0.000000 0.000000 0.000000 10.000000 
L_mid_tent01 0.000000 0.000000 0.000000 0.000000 0.000000 0.000000 10.000000 
R_mid_tent01 0.000000 0.000000 0.000000 0.000000 0.000000 0.000000 10.000000 
spine01 0.000000 0.000000 0.000000 0.000000 0.000000 0.000000 10.000000 
Bip01_Neck 0.000000 0.000000 0.000000 0.000000 0.000000 0.000000 10.000000 
L_humerus 0.000000 0.000000 0.000000 0.000000 0.000000 0.000000 10.000000 
R_humerus 0.000000 0.000000 0.000000 0.000000 0.000000 0.000000 10.000000 
weapon_bone 0.000000 0.000000 0.000000 0.000000 0.000000 0.000000 10.000000 
Bip01_Head 0.000000 0.000000 0.000000 0.000000 0.000000 0.000000 10.000000 
eye_left_bone 0.000000 0.000000 0.000000 0.000000 0.000000 0.000000 10.000000 
eye_right_bone 0.000000 0.000000 0.000000 0.000000 0.000000 0.000000 10.000000 
L_forearm 0.000000 0.000000 0.000000 0.000000 0.000000 0.000000 10.000000 
L_front_hand 0.000000 0.000000 0.000000 0.000000 0.000000 0.000000 10.000000 
L_weapon_bone 0.000000 0.000000 0.000000 0.000000 0.000000 0.000000 10.000000 
L_front_hand01_01 0.000000 0.000000 0.000000 0.000000 0.000000 0.000000 10.000000 
L_front_hand02_01 0.000000 0.000000 0.000000 0.000000 0.000000 0.000000 10.000000 
L_front_hand03_01 0.000000 0.000000 0.000000 0.000000 0.000000 0.000000 10.000000 
L_front_hand01_02 0.000000 0.000000 0.000000 0.000000 0.000000 0.000000 10.000000 
L_front_hand02_02 0.000000 0.000000 0.000000 0.000000 0.000000 0.000000 10.000000 
L_front_hand03_02 0.000000 0.000000 0.000000 0.000000 0.000000 0.000000 10.000000 
R_forearm 0.000000 0.000000 0.000000 0.000000 0.000000 0.000000 10.000000 
R_front_hand 0.000000 0.000000 0.000000 0.000000 0.000000 0.000000 10.000000 
R_weapon_bone 0.000000 0.000000 0.000000 0.000000 0.000000 0.000000 10.000000 
R_front_hand01_01 0.000000 0.000000 0.000000 0.000000 0.000000 0.000000 10.000000 
R_front_hand02_01 0.000000 0.000000 0.000000 0.000000 0.000000 0.000000 10.000000 
R_front_hand03_01 0.000000 0.000000 0.000000 0.000000 0.000000 0.000000 10.000000 
R_front_hand01_02 0.000000 0.000000 0.000000 0.000000 0.000000 0.000000 10.000000 
R_front_hand02_02 0.000000 0.000000 0.000000 0.000000 0.000000 0.000000 10.000000 
R_front_hand03_02 0.000000 0.000000 0.000000 0.000000 0.000000 0.000000 10.000000 
null_rope01_connect 0.000000 0.000000 0.000000 0.000000 0.000000 0.000000 10.000000 
Rope1_Seg01 0.000000 0.000000 0.000000 0.000000 0.000000 0.000000 10.000000 
Rope1_Seg02 0.000000 0.000000 0.000000 0.000000 0.000000 0.000000 10.000000 
Rope1_Seg03 0.000000 0.000000 0.000000 0.000000 0.000000 0.000000 10.000000 
Rope1_Seg04 0.000000 0.000000 0.000000 0.000000 0.000000 0.000000 10.000000 
Rope1_Seg05 0.000000 0.000000 0.000000 0.000000 0.000000 0.000000 10.000000 
Rope1_Seg06 0.000000 0.000000 0.000000 0.000000 0.000000 0.000000 10.000000 
Rope1_Seg07 0.000000 0.000000 0.000000 0.000000 0.000000 0.000000 10.000000 
Rope1_Seg09 0.000000 0.000000 0.000000 0.000000 0.000000 0.000000 10.000000 
L_mid_hand01 0.000000 0.000000 0.000000 0.000000 0.000000 0.000000 10.000000 
L_mid_hand02 0.000000 0.000000 0.000000 0.000000 0.000000 0.000000 10.000000 
L_mid_hand03 0.000000 0.000000 0.000000 0.000000 0.000000 0.000000 10.000000 
null_rope02_connect 0.000000 0.000000 0.000000 0.000000 0.000000 0.000000 10.000000 
Rope2_Seg01 0.000000 0.000000 0.000000 0.000000 0.000000 0.000000 10.000000 
Rope2_Seg02 0.000000 0.000000 0.000000 0.000000 0.000000 0.000000 10.000000 
Rope2_Seg03 0.000000 0.000000 0.000000 0.000000 0.000000 0.000000 10.000000 
Rope2_Seg04 0.000000 0.000000 0.000000 0.000000 0.000000 0.000000 10.000000 
Rope2_Seg05 0.000000 0.000000 0.000000 0.000000 0.000000 0.000000 10.000000 
Rope2_Seg06 0.000000 0.000000 0.000000 0.000000 0.000000 0.000000 10.000000 
Rope2_Seg07 0.000000 0.000000 0.000000 0.000000 0.000000 0.000000 10.000000 
Rope2_Seg09 0.000000 0.000000 0.000000 0.000000 0.000000 0.000000 10.000000 
R_mid_hand01 0.000000 0.000000 0.000000 0.000000 0.000000 0.000000 10.000000 
R_mid_hand02 0.000000 0.000000 0.000000 0.000000 0.000000 0.000000 10.000000 
R_mid_hand03 0.000000 0.000000 0.000000 0.000000 0.000000 0.000000 10.000000 
spine02 0.000000 0.000000 0.000000 0.000000 0.000000 0.000000 10.000000 
spine03 0.000000 0.000000 0.000000 0.000000 0.000000 0.000000 10.000000 
pelvis 0.000000 0.000000 0.000000 0.000000 0.000000 0.000000 10.000000 
null_rope03_connect 0.000000 0.000000 0.000000 0.000000 0.000000 0.000000 10.000000 
null_rope04_connect 0.000000 0.000000 0.000000 0.000000 0.000000 0.000000 10.000000 
Rope3_Seg01 0.000000 0.000000 0.000000 0.000000 0.000000 0.000000 10.000000 
Rope3_Seg02 0.000000 0.000000 0.000000 0.000000 0.000000 0.000000 10.000000 
Rope3_Seg03 0.000000 0.000000 0.000000 0.000000 0.000000 0.000000 10.000000 
Rope3_Seg04 0.000000 0.000000 0.000000 0.000000 0.000000 0.000000 10.000000 
Rope3_Seg05 0.000000 0.000000 0.000000 0.000000 0.000000 0.000000 10.000000 
Rope3_Seg06 0.000000 0.000000 0.000000 0.000000 0.000000 0.000000 10.000000 
Rope3_Seg07 0.000000 0.000000 0.000000 0.000000 0.000000 0.000000 10.000000 
Rope3_Seg08 0.000000 0.000000 0.000000 0.000000 0.000000 0.000000 10.000000 
Rope3_Seg09 0.000000 0.000000 0.000000 0.000000 0.000000 0.000000 10.000000 
R_rear_hand01 0.000000 0.000000 0.000000 0.000000 0.000000 0.000000 10.000000 
R_rear_hand02 0.000000 0.000000 0.000000 0.000000 0.000000 0.000000 10.000000 
R_rear_hand03 0.000000 0.000000 0.000000 0.000000 0.000000 0.000000 10.000000 
Rope4_Seg01 0.000000 0.000000 0.000000 0.000000 0.000000 0.000000 10.000000 
Rope4_Seg02 0.000000 0.000000 0.000000 0.000000 0.000000 0.000000 10.000000 
Rope4_Seg03 0.000000 0.000000 0.000000 0.000000 0.000000 0.000000 10.000000 
Rope4_Seg04 0.000000 0.000000 0.000000 0.000000 0.000000 0.000000 10.000000 
Rope4_Seg05 0.000000 0.000000 0.000000 0.000000 0.000000 0.000000 10.000000 
Rope4_Seg06 0.000000 0.000000 0.000000 0.000000 0.000000 0.000000 10.000000 
Rope4_Seg07 0.000000 0.000000 0.000000 0.000000 0.000000 0.000000 10.000000 
Rope4_Seg08 0.000000 0.000000 0.000000 0.000000 0.000000 0.000000 10.000000 
Rope4_Seg09 0.000000 0.000000 0.000000 0.000000 0.000000 0.000000 10.000000 
L_rear_hand01 0.000000 0.000000 0.000000 0.000000 0.000000 0.000000 10.000000 
L_rear_hand02 0.000000 0.000000 0.000000 0.000000 0.000000 0.000000 10.000000 
L_rear_hand03 0.000000 0.000000 0.000000 0.000000 0.000000 0.000000 10.000000 
#Beginning of Data. Separated by tabs
#Fr	Tx	Ty	Tz	Rx	Ry	Rz	SF
[MASTER]
31 0.000000 0.000000 0.000000 0.001660 0.001660 0.001660 0.000000
32 0.000000 0.000000 0.000000 0.001660 0.001660 0.001660 0.000000
[root]
31 16.545435 232.292572 1492.142944 -74.347404 -11.931355 -116.229645 1510.206665
32 12.964581 200.441986 1481.184570 -76.450226 -11.837227 -110.532555 1494.741821
[chest]
31 -84.512650 -34.090519 0.000000 -2.821877 -1.227266 176.064850 91.129311
32 -84.512650 -34.090519 0.000000 -2.796287 -0.500265 175.799530 91.129311
[L_mid_tent01]
31 27.299345 22.178596 -249.918747 71.943367 41.295086 100.561638 252.381714
32 27.299303 22.178690 -249.918732 55.264046 43.532944 81.688843 252.381699
[R_mid_tent01]
31 23.228794 24.509907 226.238495 -138.166107 -6.311811 26.505362 228.744751
32 23.228794 24.509907 226.238495 -142.141266 -4.617553 24.956293 228.744751
[spine01]
31 -0.361383 -0.195265 0.000000 0.001938 0.001325 21.288149 0.410763
32 -0.361383 -0.195265 0.000000 0.001939 0.001323 21.356918 0.410763
[Bip01_Neck]
31 165.484543 71.581718 0.000119 175.896118 1.177290 24.871183 180.302734
32 165.484543 71.581718 0.000119 175.896118 1.177290 24.871183 180.302734
[L_humerus]
31 -13.983130 -135.272980 -120.471481 -76.524063 49.364201 17.736244 181.680161
32 -13.983130 -135.272980 -120.471481 -70.882004 55.354771 22.894979 181.680161
[R_humerus]
31 -13.983309 -135.273102 125.287651 135.045807 -43.977837 -20.217243 184.909012
32 -13.983309 -135.273102 125.287651 130.336487 -50.921677 -18.609392 184.909012
[weapon_bone]
31 235.964890 -300.705902 0.000000 0.000000 -89.951546 -128.212341 382.234833
32 235.964890 -300.705902 0.000000 0.000000 -89.951546 -128.212341 382.234833
[Bip01_Head]
31 243.629456 109.742432 4.247780 23.036966 9.060019 -68.834541 267.239136
32 238.956757 117.234108 5.119400 18.947243 7.868655 -68.373466 266.214905
[eye_left_bone]
31 30.232698 157.064758 -75.118721 -107.978165 -85.836510 8.520540 176.709305
32 29.660950 156.840973 -75.040977 -107.076935 -85.781006 7.609545 176.380310
[eye_right_bone]
31 38.225784 158.233063 53.679123 72.016464 -85.838203 8.524132 171.407013
32 37.923470 157.958786 53.745594 72.925514 -85.780075 7.607777 171.107437
[L_forearm]
31 322.776093 0.000000 -0.000119 0.000437 0.002306 -68.544708 322.776093
32 322.776093 0.000000 -0.000119 0.000266 0.002332 -76.993660 322.776093
[L_front_hand]
31 241.149185 -0.042021 -3.300071 39.578903 3.347551 -5.332741 241.171753
32 241.149185 -0.042021 -3.300071 39.578915 3.347552 -5.332743 241.171753
[L_weapon_bone]
31 156.183838 0.000000 0.000000 0.001246 0.001989 -25.886051 156.183838
32 156.183838 0.000000 0.000000 0.001347 0.001922 -19.971050 156.183838
[L_front_hand01_01]
31 86.095154 20.947098 -0.655860 -0.288967 -0.524182 66.581490 88.609184
32 86.095154 20.947098 -0.655860 -0.288967 -0.524182 66.581490 88.609184
[L_front_hand02_01]
31 86.935165 -11.437475 24.513514 142.546371 -55.255390 -47.355206 91.046425
32 86.935165 -11.437475 24.513514 142.546371 -55.255390 -47.355206 91.046425
[L_front_hand03_01]
31 86.637497 -14.123976 -20.424902 -142.852753 53.473362 -49.356201 90.126129
32 86.637497 -14.123976 -20.424902 -142.852753 53.473362 -49.356201 90.126129
[L_front_hand01_02]
31 71.020905 -0.000179 0.000030 0.001003 0.002122 -39.385113 71.020905
32 71.020905 -0.000179 0.000030 0.000667 0.002281 -57.378761 71.020905
[L_front_hand02_02]
31 71.020927 -0.000119 0.000060 0.001003 0.002122 -39.385113 71.020927
32 71.020927 -0.000119 0.000060 0.000667 0.002281 -57.378761 71.020927
[L_front_hand03_02]
31 71.020905 -0.000060 0.000060 0.001003 0.002122 -39.385113 71.020905
32 71.020905 -0.000060 0.000060 0.000667 0.002281 -57.378761 71.020905
[R_forearm]
31 322.776428 -0.000060 0.000030 0.144143 -0.153159 -44.251232 322.776428
32 322.776428 -0.000060 0.000030 0.166098 -0.131157 -52.664871 322.776428
[R_front_hand]
31 238.847015 -0.006795 2.210259 -2.635298 -10.645461 -26.312506 238.857239
32 238.847015 -0.006795 2.210259 -2.635298 -10.645461 -26.312506 238.857239
[R_weapon_bone]
31 155.664093 0.002503 -0.000030 0.003487 0.001180 -90.988930 155.664078
32 155.664093 0.002503 -0.000030 0.003487 0.001180 -90.988930 155.664078
[R_front_hand01_01]
31 87.624611 14.231146 22.918642 -154.633499 -59.950619 61.746044 91.683487
32 87.624611 14.231146 22.918642 -154.633499 -59.950619 61.746044 91.683487
[R_front_hand02_01]
31 89.356956 14.367283 -19.491137 154.602661 58.302849 63.744389 92.579636
32 89.356956 14.367283 -19.491137 154.602661 58.302849 63.744389 92.579636
[R_front_hand03_01]
31 87.286232 -22.307278 -0.143439 0.162155 -0.423168 -75.767921 90.091743
32 87.286232 -22.307278 -0.143439 0.162155 -0.423168 -75.767921 90.091743
[R_front_hand01_02]
31 71.020905 0.000060 0.000119 0.002323 -0.000334 106.381714 71.020905
32 71.020905 0.000060 0.000119 0.002323 -0.000334 106.381714 71.020905
[R_front_hand02_02]
31 71.020844 -0.000030 -0.000119 0.002323 -0.000334 106.381714 71.020836
32 71.020844 -0.000030 -0.000119 0.002323 -0.000334 106.381714 71.020836
[R_front_hand03_02]
31 71.020905 0.000000 0.000030 0.002323 -0.000334 106.381714 71.020905
32 71.020905 0.000000 0.000030 0.002323 -0.000334 106.381714 71.020905
[null_rope01_connect]
31 328.732483 0.000000 -0.000238 -96.172256 7.077245 114.596817 328.732483
32 328.732483 0.000000 -0.000238 -89.035889 -7.160670 124.885178 328.732483
[Rope1_Seg01]
31 -0.000038 -0.000114 0.000111 81.070786 40.277729 94.479675 0.000164
32 -0.000038 -0.000114 0.000111 95.139008 35.804775 111.453438 0.000164
[Rope1_Seg02]
31 139.999863 -0.000179 0.000000 5.423028 -15.957429 36.010330 139.999863
32 139.999863 -0.000179 0.000000 9.263196 -12.144370 41.222019 139.999863
[Rope1_Seg03]
31 139.999924 0.000060 -0.000060 -4.722399 -5.902018 2.540235 139.999924
32 139.999924 0.000060 -0.000060 -20.568985 -14.853949 -33.812206 139.999924
[Rope1_Seg04]
31 139.999924 -0.000060 -0.000119 -16.171429 -1.143319 -21.688902 139.999924
32 139.999924 -0.000060 -0.000119 -2.558497 -0.325930 -8.214979 139.999924
[Rope1_Seg05]
31 139.999832 0.000119 -0.000060 -2.793654 1.017571 -6.284668 139.999832
32 139.999832 0.000119 -0.000060 -0.740892 0.017048 -2.976147 139.999832
[Rope1_Seg06]
31 139.999954 0.000119 -0.000060 -1.345353 0.789140 -3.737653 139.999954
32 139.999954 0.000119 -0.000060 -0.092332 0.006291 -0.389053 139.999954
[Rope1_Seg07]
31 139.999985 0.000060 0.000000 -0.538594 0.404137 -1.716487 139.999985
32 139.999985 0.000060 0.000000 0.006605 0.001660 0.001660 139.999985
[Rope1_Seg09]
31 121.602913 0.000119 -0.000089 25.856604 -1.359777 0.846592 121.602913
32 121.602913 0.000119 -0.000089 41.755638 -1.359550 0.848965 121.602913
[L_mid_hand01]
31 103.859421 1.038730 8.195221 114.205666 -52.799206 -20.236038 104.187431
32 103.859421 1.038730 8.195221 110.942123 -46.081024 -15.945332 104.187431
[L_mid_hand02]
31 105.572853 -4.139662 -10.864139 -154.664093 37.928848 -51.799206 106.211075
32 105.572853 -4.139662 -10.864139 -149.938431 34.541130 -43.816185 106.211075
[L_mid_hand03]
31 104.641464 17.579376 -3.913581 -11.126165 15.210821 57.052780 106.179977
32 104.641464 17.579376 -3.913581 -12.960117 13.691445 49.711269 106.179977
[null_rope02_connect]
31 328.732849 0.000179 -0.000119 161.145889 27.603750 -104.281807 328.732849
32 328.732849 0.000179 -0.000119 161.444000 34.991489 -102.176125 328.732849
[Rope2_Seg01]
31 0.000078 0.000111 0.000000 64.114403 15.735892 -45.319912 0.000136
32 0.000084 0.000112 0.000000 -20.810081 16.414097 -39.992130 0.000139
[Rope2_Seg02]
31 139.999741 -0.000060 -0.000119 -67.255295 4.187954 12.280354 139.999756
32 139.999741 -0.000060 -0.000119 5.909228 -9.684696 2.796154 139.999756
[Rope2_Seg03]
31 140.000107 0.000030 0.000000 -11.682594 -20.383020 16.866486 140.000107
32 140.000107 0.000030 0.000000 1.325707 -20.647053 7.740087 140.000107
[Rope2_Seg04]
31 139.999802 0.000000 -0.000060 -2.296701 -26.059906 11.853880 139.999802
32 139.999802 0.000000 -0.000060 -0.991017 -28.453947 10.957974 139.999802
[Rope2_Seg05]
31 139.999985 -0.000060 0.000119 -8.019070 -19.630596 33.972187 139.999985
32 139.999985 -0.000060 0.000119 -21.791477 -39.581841 75.771584 139.999985
[Rope2_Seg06]
31 139.999893 -0.000030 -0.000119 17.015188 -23.550951 53.498272 139.999893
32 139.999893 -0.000030 -0.000119 69.081642 -21.695738 44.390869 139.999893
[Rope2_Seg07]
31 139.999893 0.000060 -0.000060 16.267168 -0.898168 13.555127 139.999893
32 139.999893 0.000060 -0.000060 9.739007 3.944770 3.919313 139.999893
[Rope2_Seg09]
31 121.338966 0.000089 -0.000060 33.793236 -1.359788 -0.847141 121.338966
32 121.338966 0.000089 -0.000060 33.793236 -1.359788 -0.847141 121.338966
[R_mid_hand01]
31 104.680779 11.144459 -10.335981 -44.145947 19.560663 21.759447 105.778534
32 104.680779 11.144459 -10.335981 -44.145947 19.560663 21.759447 105.778534
[R_mid_hand02]
31 104.070427 2.443552 8.231699 74.186180 -24.483591 7.232481 104.424065
32 104.070427 2.443552 8.231699 74.186180 -24.483591 7.232481 104.424065
[R_mid_hand03]
31 106.028137 -11.221827 -5.996406 -166.520828 8.347036 -28.494411 106.788818
32 106.028137 -11.221827 -5.996406 -166.520828 8.347037 -28.494413 106.788818
[spine02]
31 129.756927 0.001550 0.000119 0.301097 -4.050428 -12.081610 129.756927
32 129.756927 0.001550 0.000119 0.301450 -4.050402 -12.091580 129.756927
[spine03]
31 78.614243 0.081136 -4.899018 2.059100 3.748778 18.928699 78.766785
32 78.614212 0.081185 -4.899016 2.037329 3.758647 18.624626 78.766747
[pelvis]
31 169.435242 0.051022 0.000000 -0.060794 -0.180114 14.297255 169.435257
32 169.435242 0.051022 0.000000 -0.060724 -0.180138 14.252398 169.435257
[null_rope03_connect]
31 -1.257226 -2.466202 137.391083 -52.844353 -62.161667 116.159523 137.418976
32 -1.257226 -2.466202 137.391083 -49.845852 -67.426895 112.139900 137.418976
[null_rope04_connect]
31 -1.259640 -2.480268 -137.844437 -52.844353 -62.161667 116.159523 137.872513
32 -1.259640 -2.480268 -137.844437 -49.845852 -67.426895 112.139900 137.872513
[Rope3_Seg01]
31 0.000000 0.000000 0.000000 -115.337814 -17.024523 -118.013908 0.000000
32 0.000000 0.000000 0.000000 -121.697609 -10.222568 -112.236473 0.000000
[Rope3_Seg02]
31 139.999924 -0.000119 0.000060 0.004124 4.947849 8.658249 139.999924
32 139.999924 -0.000119 0.000060 -1.171618 2.584808 7.763175 139.999924
[Rope3_Seg03]
31 139.999924 -0.000119 0.000119 -0.152178 7.091465 12.349610 139.999924
32 139.999924 -0.000119 0.000119 -2.566882 3.674300 11.028480 139.999924
[Rope3_Seg04]
31 139.999924 0.000119 0.000000 3.272414 10.779336 15.803350 139.999924
32 139.999924 0.000119 0.000000 -6.859760 6.430953 17.011087 139.999924
[Rope3_Seg05]
31 139.999924 -0.000238 0.000060 -87.651566 5.079326 15.701567 139.999924
32 139.999924 -0.000238 0.000060 -28.202110 -4.278322 11.249686 139.999924
[Rope3_Seg06]
31 139.999893 -0.000119 -0.000060 -38.082138 -9.374942 -0.246360 139.999893
32 139.999893 -0.000119 -0.000060 -11.177215 -5.025259 0.851838 139.999893
[Rope3_Seg07]
31 139.999771 0.000060 -0.000119 -8.235695 -5.182450 -2.747426 139.999771
32 139.999771 0.000060 -0.000119 -6.801091 -2.914994 1.200818 139.999771
[Rope3_Seg08]
31 139.999985 -0.000060 0.000000 -2.542205 -2.803883 -2.004653 139.999985
32 139.999985 -0.000060 0.000000 -3.459174 -1.779408 0.500764 139.999985
[Rope3_Seg09]
31 90.185997 -0.000179 -0.000060 23.765303 -1.361572 -0.845227 90.185997
32 90.185997 -0.000179 -0.000060 21.261335 -1.362091 -0.845157 90.185997
[R_rear_hand01]
31 103.366196 -6.073594 -10.757982 -160.019470 14.769053 -24.439310 104.101845
32 103.366196 -6.073594 -10.757982 -160.019470 14.769054 -24.439312 104.101845
[R_rear_hand02]
31 100.509819 12.039542 -7.992327 -35.779438 15.980556 23.927944 101.543350
32 100.509819 12.039542 -7.992327 -35.779446 15.980558 23.927948 101.543350
[R_rear_hand03]
31 101.539970 5.215704 5.435467 83.711807 -25.208057 6.550418 101.819031
32 101.539970 5.215704 5.435467 83.711815 -25.208061 6.550417 101.819031
[Rope4_Seg01]
31 0.000000 0.000000 0.000000 26.974091 50.889496 -135.292389 0.000000
32 0.000000 0.000000 0.000000 38.977139 40.975021 -120.166862 0.000000
[Rope4_Seg02]
31 139.999985 0.000060 0.000119 -1.409767 -9.081155 -16.646898 139.999985
32 139.999985 0.000060 0.000119 -0.258538 -8.776102 -13.796447 139.999985
[Rope4_Seg03]
31 139.999924 0.000000 -0.000238 -0.278701 -11.380988 -8.123579 139.999924
32 139.999924 0.000000 -0.000238 -1.131923 -9.862205 -10.404935 139.999924
[Rope4_Seg04]
31 139.999985 0.000000 0.000119 -2.371757 -5.933853 -6.556334 139.999985
32 139.999985 0.000000 0.000119 0.274370 -9.000360 -4.912956 139.999985
[Rope4_Seg05]
31 139.999802 -0.000060 -0.000119 -25.058172 11.294665 -23.258112 139.999802
32 139.999802 -0.000060 -0.000119 -15.786154 2.833164 -17.263504 139.999802
[Rope4_Seg06]
31 139.999924 0.000000 0.000060 -16.836428 21.944908 -16.545275 139.999924
32 139.999924 0.000000 0.000060 -24.707338 16.400457 -23.515018 139.999924
[Rope4_Seg07]
31 139.999802 0.000000 0.000000 -2.980612 8.739928 -4.335386 139.999802
32 139.999802 0.000000 0.000000 -7.479351 11.325632 -8.306808 139.999802
[Rope4_Seg08]
31 139.999924 0.000000 0.000119 -2.572743 4.524536 -2.006129 139.999924
32 139.999924 0.000000 0.000119 -4.056480 5.666222 -3.405364 139.999924
[Rope4_Seg09]
31 90.185791 0.000060 0.000060 167.235687 2.228787 0.852376 90.185791
32 90.185791 0.000060 0.000060 165.890808 2.226943 0.852530 90.185791
[L_rear_hand01]
31 101.696655 -8.392275 -7.654577 -36.144974 -15.023620 157.444031 102.329041
32 101.696655 -8.392275 -7.654577 -36.144974 -15.023622 157.444031 102.329041
[L_rear_hand02]
31 102.726799 -1.568258 5.773216 83.794235 23.585917 173.644012 102.900848
32 102.726799 -1.568258 5.773216 83.794235 23.585917 173.644012 102.900848
[L_rear_hand03]
31 104.552910 9.721220 -10.420293 -159.624359 -14.202496 -157.147644 105.519653
32 104.552910 9.721220 -10.420293 -159.624359 -14.202496 -157.147644 105.519653
